REM MD5 b9c1668e906bc97e64aa34edffd03558
FILE "Duke Nukem - Total Meltdown (USA).bin" BINARY
  TRACK 01 MODE2/2352
    INDEX 01 00:00:00
  TRACK 02 AUDIO
    INDEX 00 53:17:60
    INDEX 01 53:19:60
  TRACK 03 AUDIO
    INDEX 00 57:19:60
    INDEX 01 57:21:60
  TRACK 04 AUDIO
    INDEX 00 60:25:59
    INDEX 01 60:27:59
REM LEADOUT 66:49:68
